# xmcd CD database file
#
# Track frame offsets:
#	150
#	32325
#	68700
#	94050
#	127050
#	149475
#	178425
#	217950
#
# Disc length: 3484 seconds
#
# Revision: 0
# Processed by: cddbd v1.5.2PL0 Copyright (c) Steve Scherf et al.
# Submitted via: CDex 2.07
#
DISCID=760d9a08
DTITLE=Ben Sluijs Quartet - Particles
DYEAR=2018
DGENRE=Jazz
TTITLE0=Particles
TTITLE1=Song for Yusef
TTITLE2=Miles behind
TTITLE3=Air castles
TTITLE4=Cell mates
TTITLE5=Mali
TTITLE6=Jemina
TTITLE7=Ice chrystal
EXTD=YEAR: 2018
EXTT0=
EXTT1=
EXTT2=
EXTT3=
EXTT4=
EXTT5=
EXTT6=
EXTT7=
PLAYORDER=
